<?xml version="1.0" encoding="utf-8"?>
<!-- Generator: Adobe Illustrator 21.1.0, SVG Export Plug-In . SVG Version: 6.00 Build 0)  -->
<svg version="1.1" id="Layer_1" xmlns="http://www.w3.org/2000/svg" xmlns:xlink="http://www.w3.org/1999/xlink" x="0px" y="0px"
	 viewBox="0 0 1201.5 207.3" style="enable-background:new 0 0 1201.5 207.3;" xml:space="preserve">
<style type="text/css">
	.st0{fill:#FFFFFF;}
	.st1{fill:#51B27A;stroke:#FFFFFF;stroke-width:2.8346;stroke-miterlimit:22.9256;}
	.st2{fill:#FFFFFF;stroke:#FFFFFF;stroke-width:0.216;stroke-miterlimit:22.9256;}
	.st3{fill:#51B27A;stroke:#FFFFFF;stroke-width:0.216;stroke-miterlimit:22.9256;}
	.st4{fill:#51B27A;}
	.st5{fill:#2772D9;stroke:#FFFFFF;stroke-width:2.8346;stroke-miterlimit:22.9256;}
	.st6{fill:#588E95;stroke:#FFFFFF;stroke-width:0.216;stroke-miterlimit:22.9256;}
	.st7{fill:#2772D9;}
	.st8{fill:#EBC445;stroke:#FFFFFF;stroke-width:2.8346;stroke-miterlimit:22.9256;}
	.st9{fill:#EBC445;}
	.st10{fill:#C52F27;stroke:#FFFFFF;stroke-width:2.8346;stroke-miterlimit:22.9256;}
	.st11{fill:#C52F27;stroke:#FFFFFF;stroke-width:0.216;stroke-miterlimit:22.9256;}
	.st12{fill:#C52F27;}
	.st13{fill:#5ABA47;}
	.st14{fill:#AE2E2B;}
</style>
<g>
	<path class="st0" d="M772.5,161.6h-62.9v-1.9h2.3c3.1,0,6.3-1.6,6.3-5c0-1.2-0.5-2.7-1.5-4.3l-23-38.8V150c0,7.3,5,9.7,8.7,9.7h3.2
		v1.8h-57v-1.8h3.2c3.4,0,10.2-2.4,10.2-9.8V66.3c0-6.5-3.8-10.8-10-10.8h-3.4v-1.8h57.1v1.8h-2.3c-5.2,0-9.7,4.6-9.7,10.8v34.3
		l26.1-23.7c4-3.6,5.7-7.9,5.7-11.7c0-5.4-3.4-9.7-8.3-9.7h-4.4v-1.8H760v1.8h-3.5c-4.8,0-9.2,0.4-19.7,9.6l-23.4,20.3l43.6,67
		c3.9,6.1,5.8,7.4,12.1,7.4h3.4L772.5,161.6L772.5,161.6z"/>
</g>
<path class="st1" d="M107.2,179.6c49.4,0,89.8-19.9,89.8-44.3s-40.3-44.3-89.8-44.3s-89.8,19.9-89.8,44.3
	C17.5,159.7,57.8,179.6,107.2,179.6z"/>
<path class="st2" d="M107.2,169.2c38,0,69-15.3,69-34.1s-31-34.1-69-34.1s-69,15.3-69,34.1S69.2,169.2,107.2,169.2z"/>
<path class="st3" d="M107.2,160.7c28.4,0,51.6-11.4,51.6-25.5c0-14-23.2-25.5-51.6-25.5s-51.6,11.4-51.6,25.5
	C55.6,149.2,78.8,160.7,107.2,160.7z"/>
<path class="st3" d="M132,165.4l-5.6-4.8c2.9-0.5,5.7-1.1,8.4-1.8c2.7-0.8,5.2-1.7,7.4-2.7l5.6,4.8c-2.3,0.9-4.8,1.8-7.5,2.6
	C137.6,164.2,134.8,164.9,132,165.4L132,165.4z M98.1,167.5V162c2.9,0.3,6,0.5,9.1,0.5s6.2-0.2,9.1-0.5v5.5c-3,0.2-6,0.4-9.1,0.4
	S101.1,167.8,98.1,167.5L98.1,167.5z M66.7,161l5.6-4.8c2.2,1,4.7,1.9,7.4,2.7c2.7,0.8,5.5,1.4,8.4,1.8l-5.6,4.8
	c-2.8-0.5-5.6-1.2-8.3-1.9C71.5,162.8,69,161.9,66.7,161L66.7,161z M46.1,147.5l9.7-2.8c0.9,1.4,2.2,2.8,3.7,4.1
	c1.6,1.3,3.4,2.6,5.4,3.7l-9.7,2.8c-1.9-1.1-3.7-2.4-5.2-3.7C48.4,150.2,47.1,148.9,46.1,147.5L46.1,147.5z M41.9,130.8H53
	c-0.6,1.4-1,2.9-1,4.5c0,1.5,0.3,3,1,4.5H41.8c-0.5-1.5-0.8-3-0.8-4.5C41.1,133.7,41.4,132.2,41.9,130.8L41.9,130.8z M55.2,115.2
	l9.7,2.8c-2,1.1-3.8,2.3-5.4,3.7c-1.6,1.3-2.8,2.7-3.7,4.1l-9.7-2.8c1-1.4,2.3-2.8,3.9-4.1C51.5,117.6,53.3,116.4,55.2,115.2
	L55.2,115.2z M82.4,105.1l5.6,4.8c-2.9,0.5-5.7,1.1-8.4,1.8c-2.7,0.8-5.2,1.7-7.4,2.7l-5.6-4.8c2.3-0.9,4.8-1.8,7.5-2.6
	C76.9,106.2,79.6,105.6,82.4,105.1L82.4,105.1z M116.3,102.9v5.5c-2.9-0.3-6-0.5-9.1-0.5s-6.2,0.2-9.1,0.5v-5.5c3-0.2,6-0.4,9.1-0.4
	S113.4,102.8,116.3,102.9L116.3,102.9z M147.8,109.6l-5.6,4.8c-2.2-1-4.7-1.9-7.4-2.7c-2.7-0.8-5.5-1.4-8.4-1.8l5.6-4.8
	c2.8,0.5,5.6,1.2,8.3,1.9C143,107.8,145.5,108.6,147.8,109.6L147.8,109.6z M168.4,122.9l-9.7,2.8c-0.9-1.4-2.2-2.8-3.7-4.1
	c-1.6-1.3-3.4-2.6-5.4-3.7l9.7-2.8c1.9,1.1,3.7,2.4,5.2,3.7C166,120.2,167.3,121.6,168.4,122.9L168.4,122.9z M172.6,139.7h-11.2
	c0.6-1.4,1-2.9,1-4.5c0-1.5-0.3-3-1-4.5h11.2c0.5,1.5,0.8,3,0.8,4.5S173.1,138.2,172.6,139.7L172.6,139.7z M159.3,155.2l-9.7-2.8
	c2-1.1,3.8-2.3,5.4-3.7c1.6-1.3,2.8-2.7,3.7-4.1l9.7,2.8c-1,1.4-2.3,2.7-3.9,4.1C162.9,152.9,161.2,154.1,159.3,155.2z"/>
<path class="st2" d="M107.2,156.8c24,0,43.6-9.7,43.6-21.5s-19.6-21.5-43.6-21.5s-43.6,9.7-43.6,21.5
	C63.7,147.1,83.2,156.8,107.2,156.8z"/>
<path class="st2" d="M107.2,178.9c-5.8,0-11.6-0.3-17.1-0.8v-3.7c0-1.3,2.2-2.4,4.9-2.4h24.4c2.7,0,4.9,1.1,4.9,2.4v3.7
	C118.8,178.7,113.1,178.9,107.2,178.9L107.2,178.9z M183.8,157.1c-2.9,2.5-6.3,4.8-10,6.9l-6.5-1.9c-2.3-0.7-3.1-2.1-1.8-3.3
	l12.2-10.4c1.3-1.1,4.3-1.5,6.7-0.9l6.5,1.9C189.1,152,186.7,154.6,183.8,157.1L183.8,157.1z M183.8,113.4c2.9,2.5,5.3,5.1,7.1,7.7
	l-6.5,1.9c-2.3,0.7-5.3,0.3-6.7-0.9l-12.2-10.4c-1.3-1.1-0.5-2.6,1.8-3.3l6.5-1.9C177.6,108.6,180.9,110.9,183.8,113.4L183.8,113.4z
	 M107.2,91.6c5.8,0,11.6,0.3,17.1,0.8v3.7c0,1.3-2.2,2.4-4.9,2.4H95c-2.7,0-4.9-1.1-4.9-2.4v-3.7C95.7,91.9,101.4,91.6,107.2,91.6
	L107.2,91.6z M30.6,113.4c2.9-2.5,6.3-4.8,10-6.9l6.5,1.9c2.3,0.7,3.1,2.1,1.8,3.3l-12.2,10.4c-1.3,1.1-4.3,1.5-6.7,0.9l-6.5-1.9
	C25.3,118.4,27.7,115.9,30.6,113.4L30.6,113.4z M30.6,157.1c-2.9-2.5-5.3-5.1-7.1-7.7l6.5-1.9c2.3-0.7,5.3-0.3,6.7,0.9l12.2,10.4
	c1.3,1.1,0.5,2.6-1.8,3.3l-6.5,1.9C36.9,161.9,33.5,159.6,30.6,157.1z"/>
<path class="st4" d="M197.2,136.3c1.7,3.4,0,17.8,0,21.5c0,24.5-40.2,44.3-89.8,44.3s-89.8-19.8-89.8-44.3c0-3.7-1.7-18.1,0-21.5
	c0,24.5,40.2,44.3,89.8,44.3S197.2,160.8,197.2,136.3z"/>
<path class="st2" d="M124.3,200.2v-21.5c-5.5,0.5-11.2,0.8-17.1,0.8c-5.8,0-11.6-0.3-17.1-0.8v21.5c5.5,0.5,11.2,0.8,17.1,0.8
	C113.1,201.1,118.8,200.8,124.3,200.2z"/>
<path class="st2" d="M40.6,164.9v21.5c-7.3-4-13.1-8.6-17.1-13.7v-21.5C27.5,156.2,33.3,161,40.6,164.9z"/>
<path class="st5" d="M97.4,138c49.4,0,89.8-19.9,89.8-44.3s-40.4-44.3-89.8-44.3S7.6,69.2,7.6,93.7S47.9,138,97.4,138z"/>
<path class="st2" d="M97.4,127.8c38,0,69-15.3,69-34.1s-31-34.1-69-34.1s-69,15.3-69,34.1C28.4,112.4,59.4,127.8,97.4,127.8z"/>
<path class="st6" d="M97.4,119.2c28.4,0,51.6-11.4,51.6-25.5c0-14.1-23.2-25.5-51.6-25.5S45.8,79.6,45.8,93.7
	C45.8,107.8,68.9,119.2,97.4,119.2z"/>
<path class="st6" d="M122.2,123.9l-5.6-4.8c2.9-0.5,5.7-1.1,8.4-1.8c2.7-0.8,5.2-1.7,7.4-2.7l5.6,4.8c-2.3,0.9-4.8,1.8-7.5,2.6
	C127.7,122.7,125,123.4,122.2,123.9L122.2,123.9z M88.3,125.9v-5.6c2.9,0.3,6,0.5,9.1,0.5s6.2-0.2,9.1-0.5v5.5c-3,0.2-6,0.4-9.1,0.4
	S91.2,126.2,88.3,125.9L88.3,125.9z M56.8,119.4l5.6-4.8c2.2,1,4.7,1.9,7.4,2.7c2.7,0.8,5.5,1.4,8.4,1.8l-5.6,4.8
	c-2.8-0.5-5.6-1.2-8.3-1.9C61.6,121.2,59.1,120.2,56.8,119.4L56.8,119.4z M36.2,105.9l9.7-2.8c0.9,1.4,2.2,2.8,3.7,4.1
	c1.6,1.3,3.4,2.6,5.4,3.7l-9.7,2.8c-1.9-1.1-3.7-2.4-5.2-3.7C38.6,108.7,37.3,107.2,36.2,105.9L36.2,105.9z M32,89.2h11.2
	c-0.6,1.4-1,2.9-1,4.5c0,1.5,0.3,3,1,4.5H32c-0.5-1.5-0.8-3-0.8-4.5C31.3,92.2,31.5,90.7,32,89.2L32,89.2z M45.3,73.7l9.7,2.7
	c-2,1.1-3.8,2.3-5.4,3.7c-1.6,1.3-2.8,2.7-3.7,4.1l-9.7-2.8c1-1.4,2.3-2.8,3.9-4.1C41.7,76.1,43.4,74.8,45.3,73.7L45.3,73.7z
	 M72.6,63.5l5.6,4.8c-2.9,0.5-5.7,1.1-8.4,1.8c-2.7,0.8-5.2,1.7-7.4,2.7l-5.6-4.8c2.3-0.9,4.8-1.8,7.5-2.6
	C67,64.7,69.8,64,72.6,63.5L72.6,63.5z M106.5,61.4v5.5c-2.9-0.3-6-0.5-9.1-0.5s-6.2,0.2-9.1,0.5v-5.5c3-0.2,6-0.4,9.1-0.4
	C100.5,61.1,103.5,61.2,106.5,61.4L106.5,61.4z M137.9,67.9l-5.6,4.8c-2.2-1-4.7-1.9-7.4-2.7s-5.5-1.4-8.4-1.8l5.6-4.8
	c2.8,0.5,5.6,1.2,8.3,1.9C133.1,66.2,135.6,67.1,137.9,67.9L137.9,67.9z M158.5,81.4l-9.7,2.8c-0.9-1.4-2.2-2.8-3.7-4.1
	c-1.6-1.3-3.4-2.6-5.4-3.7l9.7-2.8c1.9,1.1,3.7,2.4,5.2,3.7C156.2,78.7,157.4,80.1,158.5,81.4L158.5,81.4z M162.7,98.2h-11.2
	c0.6-1.4,1-2.9,1-4.5c0-1.5-0.3-3-1-4.5h11.2c0.5,1.5,0.8,3,0.8,4.5S163.2,96.7,162.7,98.2L162.7,98.2z M149.4,113.7l-9.7-2.8
	c2-1.1,3.8-2.3,5.4-3.7c1.6-1.3,2.8-2.7,3.7-4.1l9.7,2.8c-1,1.4-2.3,2.7-3.9,4.1C153.1,111.2,151.3,112.6,149.4,113.7z"/>
<path class="st2" d="M97.4,115.2c24,0,43.6-9.7,43.6-21.5s-19.6-21.5-43.6-21.5s-43.6,9.7-43.6,21.5S73.4,115.2,97.4,115.2z"/>
<path class="st2" d="M97.4,137.4c-5.8,0-11.6-0.3-17.1-0.8v-3.7c0-1.3,2.2-2.4,4.9-2.4h24.4c2.7,0,4.9,1.1,4.9,2.4v3.7
	C108.9,137.1,103.2,137.4,97.4,137.4L97.4,137.4z M174,115.4c-2.9,2.5-6.3,4.8-10,6.9l-6.5-1.9c-2.3-0.7-3.1-2.1-1.8-3.3l12.2-10.4
	c1.3-1.1,4.3-1.5,6.7-0.9l6.5,1.9C179.3,110.4,176.9,112.9,174,115.4L174,115.4z M174,71.9c2.9,2.5,5.3,5.1,7.1,7.7l-6.5,1.9
	c-2.3,0.7-5.3,0.3-6.7-0.9l-12.2-10.4c-1.3-1.1-0.5-2.6,1.8-3.3l6.5-1.9C167.7,67.1,171,69.4,174,71.9L174,71.9z M97.4,50
	c5.8,0,11.6,0.3,17.1,0.8v3.7c0,1.3-2.2,2.4-4.9,2.4H85.2c-2.7,0-4.9-1.1-4.9-2.4v-3.7C85.8,50.3,91.5,50,97.4,50L97.4,50z
	 M20.8,71.9c2.9-2.5,6.3-4.8,10-6.9l6.5,1.9c2.3,0.7,3.1,2.1,1.8,3.3L26.9,80.6c-1.3,1.1-4.3,1.5-6.7,0.9l-6.5-1.9
	C15.5,76.9,17.8,74.4,20.8,71.9L20.8,71.9z M20.8,115.4c-2.9-2.5-5.3-5.1-7.1-7.7l6.5-1.9c2.3-0.7,5.3-0.3,6.7,0.9l12.2,10.4
	c1.3,1.1,0.5,2.6-1.8,3.3l-6.5,1.9C27,120.2,23.7,117.9,20.8,115.4z"/>
<path class="st7" d="M185.6,93.4c1.7,3.4,0,17.8,0,21.5c0,24.5-40.2,44.3-89.8,44.3S6,139.4,6,114.9c0-3.7-1.7-18.1,0-21.5
	c0,24.5,40.2,44.3,89.8,44.3C145.4,137.8,185.6,117.9,185.6,93.4z"/>
<path class="st2" d="M181.1,131.2c-4,5.1-9.8,9.7-17.1,13.7v-21.5c7.3-4,13.1-8.6,17.1-13.7V131.2z"/>
<path class="st2" d="M114.5,158.7v-21.5c-5.5,0.5-11.2,0.8-17.1,0.8c-5.8,0-11.6-0.3-17.1-0.8v21.5c5.5,0.5,11.2,0.8,17.1,0.8
	C103.2,159.5,108.9,159.2,114.5,158.7z"/>
<path class="st8" d="M119.6,114.9c49.4,0,89.8-19.9,89.8-44.3s-40.3-44.3-89.8-44.3S29.8,46.3,29.8,70.7
	C29.8,95.1,70.1,114.9,119.6,114.9z"/>
<path class="st2" d="M119.6,104.8c38,0,69-15.3,69-34.1s-31-34.1-69-34.1s-69,15.3-69,34.1C50.6,89.4,81.6,104.8,119.6,104.8z"/>
<path class="st6" d="M119.6,96.2c28.4,0,51.6-11.4,51.6-25.5c0-14-23.2-25.5-51.6-25.5S68,56.6,68,70.7
	C68,84.7,91.2,96.2,119.6,96.2z"/>
<path class="st6" d="M144.4,100.9l-5.6-4.8c2.9-0.5,5.7-1.1,8.4-1.8c2.7-0.8,5.2-1.7,7.4-2.7l5.6,4.8c-2.3,0.9-4.8,1.8-7.5,2.6
	C149.9,99.7,147.2,100.4,144.4,100.9L144.4,100.9z M110.5,102.9v-5.6c2.9,0.3,6,0.5,9.1,0.5s6.2-0.2,9.1-0.5v5.5
	c-3,0.2-6,0.4-9.1,0.4S113.4,103.2,110.5,102.9L110.5,102.9z M79,96.4l5.6-4.8c2.2,1,4.7,1.9,7.4,2.7c2.7,0.8,5.5,1.4,8.4,1.8
	l-5.6,4.8c-2.8-0.5-5.6-1.2-8.3-1.9C83.9,98.2,81.4,97.2,79,96.4L79,96.4z M58.5,82.9l9.7-2.8c0.9,1.4,2.2,2.8,3.7,4.1
	c1.6,1.3,3.4,2.6,5.4,3.7l-9.7,2.8c-1.9-1.1-3.7-2.4-5.2-3.7C60.8,85.7,59.5,84.2,58.5,82.9L58.5,82.9z M54.2,66.2h11.2
	c-0.6,1.4-1,2.9-1,4.5c0,1.5,0.3,3,1,4.5H54.2c-0.5-1.5-0.8-3-0.8-4.5C53.5,69.2,53.7,67.7,54.2,66.2L54.2,66.2z M67.5,50.7l9.7,2.8
	c-2,1.1-3.8,2.3-5.4,3.7c-1.6,1.3-2.8,2.7-3.7,4.1l-9.7-2.8c1-1.4,2.3-2.8,3.9-4.1S65.6,51.8,67.5,50.7L67.5,50.7z M94.8,40.5
	l5.6,4.8c-2.9,0.5-5.7,1.1-8.4,1.8c-2.7,0.8-5.2,1.7-7.4,2.7L79,45c2.3-0.9,4.8-1.8,7.5-2.6C89.2,41.7,92,41,94.8,40.5L94.8,40.5z
	 M128.7,38.4v5.5c-2.9-0.3-6-0.5-9.1-0.5s-6.2,0.2-9.1,0.5v-5.5c3-0.2,6-0.4,9.1-0.4C122.7,38.1,125.7,38.2,128.7,38.4L128.7,38.4z
	 M160.1,45l-5.6,4.8c-2.2-1-4.7-1.9-7.4-2.7s-5.5-1.4-8.4-1.8l5.6-4.8c2.8,0.5,5.6,1.2,8.3,1.9C155.3,43.2,157.8,44.1,160.1,45
	L160.1,45z M180.7,58.5l-9.7,2.8c-0.9-1.4-2.2-2.8-3.7-4.1c-1.6-1.3-3.4-2.6-5.4-3.7l9.7-2.8c1.9,1.1,3.7,2.4,5.2,3.7
	C178.4,55.7,179.7,57.1,180.7,58.5L180.7,58.5z M184.9,75.2h-11.2c0.6-1.4,1-2.9,1-4.5c0-1.5-0.3-3-1-4.5h11.2
	c0.5,1.5,0.8,3,0.8,4.5S185.4,73.7,184.9,75.2L184.9,75.2z M171.6,90.7l-9.7-2.8c2-1.1,3.8-2.3,5.4-3.7c1.6-1.3,2.8-2.7,3.7-4.1
	l9.7,2.8c-1,1.4-2.3,2.7-3.9,4.1C175.3,88.2,173.5,89.6,171.6,90.7z"/>
<path class="st2" d="M119.6,92.2c24,0,43.6-9.7,43.6-21.5s-19.6-21.5-43.6-21.5c-24,0-43.6,9.7-43.6,21.5S95.6,92.2,119.6,92.2z"/>
<path class="st2" d="M119.6,114.4c-5.8,0-11.6-0.3-17.1-0.8v-3.7c0-1.3,2.2-2.4,4.9-2.4h24.4c2.7,0,4.9,1.1,4.9,2.4v3.7
	C131.1,114.1,125.4,114.4,119.6,114.4L119.6,114.4z M196.2,92.4c-2.9,2.5-6.3,4.8-10,6.9l-6.5-1.9c-2.3-0.7-3.1-2.1-1.8-3.3
	l12.2-10.4c1.3-1.1,4.3-1.5,6.7-0.9l6.5,1.9C201.5,87.4,199.1,89.9,196.2,92.4L196.2,92.4z M196.2,48.9c2.9,2.5,5.3,5.1,7.1,7.7
	l-6.5,1.9c-2.3,0.7-5.3,0.3-6.7-0.9l-12.2-10.4c-1.3-1.1-0.5-2.6,1.8-3.3l6.5-1.9C189.9,44.1,193.3,46.4,196.2,48.9L196.2,48.9z
	 M119.6,27c5.8,0,11.6,0.3,17.1,0.8v3.7c0,1.3-2.2,2.4-4.9,2.4h-24.4c-2.7,0-4.9-1.1-4.9-2.4v-3.7C108,27.3,113.7,27,119.6,27
	L119.6,27z M43,48.9c2.9-2.5,6.3-4.8,10-6.9l6.5,1.9c2.3,0.7,3.1,2.1,1.8,3.3L49,57.6c-1.3,1.1-4.3,1.5-6.7,0.9l-6.5-1.9
	C37.7,53.9,40.1,51.4,43,48.9L43,48.9z M43,92.4c-2.9-2.5-5.3-5.1-7.1-7.7l6.5-1.9c2.3-0.7,5.3-0.3,6.7,0.9l12.2,10.4
	c1.3,1.1,0.5,2.6-1.8,3.3L53,99.4C49.3,97.2,45.9,94.9,43,92.4z"/>
<path class="st9" d="M211,70.9c1.7,3.4,0,17.8,0,21.5c0,24.5-40.2,44.3-89.8,44.3s-89.8-19.8-89.8-44.3c0-3.7-1.7-18.1,0-21.5
	c0,24.5,40.2,44.3,89.8,44.3C170.8,115.2,211,95.4,211,70.9z"/>
<path class="st2" d="M136.7,135.7v-21.5c-5.5,0.5-11.2,0.8-17.1,0.8c-5.8,0-11.6-0.3-17.1-0.8v21.5c5.5,0.5,11.2,0.8,17.1,0.8
	C125.4,136.5,131.1,136.2,136.7,135.7z"/>
<path class="st2" d="M53,100.4v21.5c-7.3-4-13.1-8.6-17.1-13.7V86.7C39.9,91.8,45.7,96.4,53,100.4z"/>
<path class="st10" d="M104.8,93.8c49.4,0,89.8-19.9,89.8-44.3S154.3,5.2,104.8,5.2C55.4,5.2,15,25.1,15,49.5
	C15.1,73.9,55.4,93.8,104.8,93.8z"/>
<path class="st2" d="M104.8,83.6c38,0,69-15.3,69-34.1s-31-34.1-69-34.1s-69,15.3-69,34.1S66.8,83.6,104.8,83.6z"/>
<path class="st11" d="M104.8,74.9c28.4,0,51.6-11.4,51.6-25.5c0-14-23.2-25.5-51.6-25.5S53.2,35.4,53.2,49.5
	C53.2,63.6,76.4,74.9,104.8,74.9z"/>
<path class="st11" d="M129.6,79.7l-5.6-4.8c2.9-0.5,5.7-1.1,8.4-1.8c2.7-0.8,5.2-1.7,7.4-2.7l5.6,4.8c-2.3,0.9-4.8,1.8-7.5,2.6
	C135.2,78.6,132.4,79.2,129.6,79.7L129.6,79.7z M95.7,81.8v-5.5c2.9,0.3,6,0.5,9.1,0.5s6.2-0.2,9.1-0.5v5.5c-3,0.2-6,0.4-9.1,0.4
	S98.7,81.9,95.7,81.8L95.7,81.8z M64.3,75.2l5.6-4.8c2.2,1,4.7,1.9,7.4,2.7c2.7,0.8,5.5,1.4,8.4,1.8l-5.6,4.8
	c-2.8-0.5-5.6-1.2-8.3-1.9C69.1,76.9,66.6,76.2,64.3,75.2L64.3,75.2z M43.7,61.8l9.7-2.8c0.9,1.4,2.2,2.8,3.7,4.1
	c1.6,1.3,3.4,2.6,5.4,3.7l-9.7,2.8c-1.9-1.1-3.7-2.4-5.2-3.7C46,64.4,44.8,63.2,43.7,61.8L43.7,61.8z M39.5,45h11.2
	c-0.6,1.4-1,2.9-1,4.5c0,1.5,0.3,3,1,4.5H39.5c-0.5-1.5-0.8-3-0.8-4.5S39,46.5,39.5,45L39.5,45z M52.8,29.5l9.7,2.8
	c-2,1.1-3.8,2.3-5.4,3.7c-1.6,1.3-2.8,2.7-3.7,4.1l-9.7-2.8c1-1.4,2.3-2.8,3.9-4.1C49.1,31.9,50.9,30.6,52.8,29.5L52.8,29.5z
	 M80,19.3l5.6,4.8c-2.9,0.5-5.7,1.1-8.4,1.8c-2.7,0.8-5.2,1.7-7.4,2.7l-5.6-4.8c2.3-0.9,4.8-1.8,7.5-2.6
	C74.5,20.5,77.2,19.9,80,19.3L80,19.3z M113.9,17.3v5.5c-2.9-0.3-6-0.5-9.1-0.5s-6.2,0.2-9.1,0.5v-5.5c3-0.2,6-0.4,9.1-0.4
	S111,17,113.9,17.3L113.9,17.3z M145.4,23.8l-5.6,4.8c-2.2-1-4.7-1.9-7.4-2.7c-2.7-0.8-5.5-1.4-8.4-1.8l5.6-4.8
	c2.8,0.5,5.6,1.2,8.3,1.9C140.6,22,143.1,22.9,145.4,23.8L145.4,23.8z M166,37.3l-9.7,2.8c-0.9-1.4-2.2-2.8-3.7-4.1
	c-1.6-1.3-3.4-2.6-5.4-3.7l9.7-2.8c1.9,1.1,3.7,2.4,5.2,3.7C163.6,34.5,164.9,35.9,166,37.3L166,37.3z M170.2,54H159
	c0.6-1.4,1-2.9,1-4.5c0-1.5-0.3-3-1-4.5h11.2c0.5,1.5,0.8,3,0.8,4.5C170.9,51.1,170.7,52.6,170.2,54L170.2,54z M156.9,69.4l-9.7-2.8
	c2-1.1,3.8-2.3,5.4-3.7c1.6-1.3,2.8-2.7,3.7-4.1l9.7,2.8c-1,1.4-2.3,2.7-3.9,4.1C160.5,67.2,158.8,68.4,156.9,69.4z"/>
<path class="st2" d="M104.8,70.9c24,0,43.6-9.7,43.6-21.5S128.8,28,104.8,28c-24,0-43.6,9.7-43.6,21.5S80.8,70.9,104.8,70.9z"/>
<path class="st2" d="M104.8,93.2c-5.8,0-11.6-0.3-17.1-0.8v-3.7c0-1.3,2.2-2.4,4.9-2.4H117c2.7,0,4.9,1.1,4.9,2.4v3.7
	C116.4,92.9,110.7,93.2,104.8,93.2L104.8,93.2z M181.4,71.4c-2.9,2.5-6.3,4.8-10,6.9l-6.5-1.9c-2.3-0.7-3.1-2.1-1.8-3.3l12.2-10.4
	c1.3-1.1,4.3-1.5,6.7-0.9l6.5,1.9C186.7,66.2,184.4,68.9,181.4,71.4L181.4,71.4z M181.4,27.7c2.9,2.5,5.3,5.1,7.1,7.7l-6.5,1.9
	c-2.3,0.7-5.3,0.3-6.7-0.9L163.1,26c-1.3-1.1-0.5-2.6,1.8-3.3l6.5-1.9C175.2,22.9,178.5,25.2,181.4,27.7L181.4,27.7z M104.8,5.8
	c5.8,0,11.6,0.3,17.1,0.8v3.8c0,1.3-2.2,2.4-4.9,2.4H92.6c-2.7,0-4.9-1.1-4.9-2.4V6.7C93.3,6.1,99,5.8,104.8,5.8L104.8,5.8z
	 M28.2,27.7c2.9-2.5,6.3-4.8,10-6.9l6.5,1.9c2.3,0.7,3.1,2.1,1.8,3.3L34.3,36.4c-1.3,1.1-4.3,1.5-6.7,0.9l-6.5-1.9
	C22.9,32.8,25.3,30.2,28.2,27.7L28.2,27.7z M28.2,71.4c-2.9-2.5-5.3-5.1-7.1-7.7l6.5-1.9c2.3-0.7,5.3-0.3,6.7,0.9l12.2,10.4
	c1.3,1.1,0.5,2.6-1.8,3.3l-6.5,1.9C34.5,76.2,31.1,73.9,28.2,71.4z"/>
<path class="st12" d="M193.2,50.2c1.7,3.4,0,17.8,0,21.5c0,24.5-40.2,44.3-89.8,44.3S13.6,96.2,13.6,71.7c0-3.7-1.7-18.1,0-21.5
	c0,24.5,40.2,44.3,89.8,44.3C153.1,94.5,193.2,74.6,193.2,50.2z"/>
<path class="st2" d="M121.9,114.4V92.9c-5.5,0.5-11.2,0.8-17.1,0.8c-5.8,0-11.6-0.3-17.1-0.8v21.5c5.5,0.5,11.2,0.8,17.1,0.8
	C110.7,115.2,116.4,115.1,121.9,114.4z"/>
<path class="st2" d="M38.2,79.2v21.5c-7.3-4-13.1-8.6-17.1-13.7V65.4C25.1,70.6,30.9,75.2,38.2,79.2z"/>
<g>
	<path class="st0" d="M282.4,161.6h-71.1v-1.8h8.3c4.8,0,8.6-4,8.6-9V60.9c0-3.9-2.2-5.5-6.3-5.5h-7.2v-1.6h59.8
		c20.7,0,38.5,8.6,38.5,24.8c0,12.8-12.1,21.7-26.9,24.5l0.1,0.9c17.8,2.4,34.9,12.8,34.9,29.2C321,149.5,306.9,161.6,282.4,161.6z
		 M270.7,55.4h-11.5v47.1h11.6c9,0,10.2-7.3,10.2-24.5C281,60.9,276.9,55.4,270.7,55.4z M270.3,104.7h-11V151c0,6.3,0.3,8.9,9.8,8.9
		c13.5,0,15.6-4.7,15.6-27.5C284.7,114.2,280.1,104.7,270.3,104.7z"/>
</g>
<g>
	<path class="st0" d="M417.3,161.5h-93.6v-1.6h5.4c6.9,0,9.8-4.6,9.8-10.2V66.2c0-6.3-3-10.6-10.1-10.6h-5.4V54h63v1.6h-7.8
		c-4.8,0-7.9,3.4-7.9,7.8v88c0,7,2.8,8.5,10.2,8.5c20.7,0,35-31.6,35-44.3h1.3v45.9H417.3z"/>
</g>
<g>
	<path class="st0" d="M644.6,120.2c0,19.7-13.5,44.3-42.5,44.3c-35.4,0-60.4-23.7-60.4-55.1c0-31.5,29.9-57.9,56.9-57.9
		c15.1,0,20.2,8.6,31.1,8.6c8.3,0,10.4-7.4,10.4-7.4h0.5v51.6H639v-3c0-7.1-12.9-48.1-38.6-48.1c-15.5,0-22.6,23.3-22.6,57.9
		s10.1,51.3,27.1,51.3c21,0,37.7-19.8,37.7-42.3h2V120.2z"/>
</g>
<g>
	<path class="st12" d="M861.5,55.5h-5.9c-3.5,0-7.5,1.9-7.5,6.9V135c0,19.1-22.1,30-43.1,30c-18.7,0-36.6-8.8-36.6-27.7
		c0-11.3,9.6-19.9,19.2-19.9c10.5,0,18.6,8.6,18.6,17.9c0,9.4-7.5,17.1-17,17.1c-4.3,0-7.5-1.5-8.8-1.5c-0.3,0-0.5,0.1-0.5,0.4
		c0,4.2,7.3,11.2,18.2,11.2c10.6,0,18-7.3,18-20.2V64.4c0-6.9-3.2-8.9-8.9-8.9h-6.3v-1.8h60.6V55.5z"/>
</g>
<g>
	<path class="st12" d="M1062.1,120.2c0,19.7-13.5,44.3-42.5,44.3c-35.4,0-60.4-23.7-60.4-55.1c0-31.5,29.9-57.9,56.9-57.9
		c15.1,0,20.2,8.6,31.1,8.6c8.3,0,10.4-7.4,10.4-7.4h0.5v51.6h-1.6v-3c0-7.1-12.9-48.1-38.6-48.1c-15.5,0-22.6,23.3-22.6,57.9
		s10.1,51.3,27.1,51.3c21,0,37.7-19.8,37.7-42.3h2V120.2z"/>
</g>
<g>
	<path class="st12" d="M1194.2,161.6h-62.9v-1.9h2.3c3.1,0,6.3-1.6,6.3-5c0-1.2-0.5-2.7-1.5-4.3l-23-38.8V150c0,7.3,5,9.7,8.7,9.7
		h3.2v1.8h-57v-1.8h3.2c3.4,0,10.2-2.4,10.2-9.8V66.3c0-6.5-3.8-10.8-10-10.8h-3.4v-1.8h57.1v1.8h-2.3c-5.2,0-9.7,4.6-9.7,10.8v34.3
		l26.1-23.7c4-3.6,5.7-7.9,5.7-11.7c0-5.4-3.4-9.7-8.3-9.7h-4.4v-1.8h47.2v1.8h-3.5c-4.8,0-9.2,0.4-19.7,9.6l-23.4,20.3l43.6,67
		c3.9,6.1,5.8,7.4,12.1,7.4h3.4L1194.2,161.6L1194.2,161.6z"/>
</g>
<path class="st13" d="M146.9,157.7h-4.7"/>
<path class="st13" d="M102.2,159.2"/>
<g>
	<g>
		<path class="st12" d="M869.2,129.1c-4.3,13.9-12.2,31.1-23.4,31.1h-2.6v1.6h44.7v-1.6h-4.7c-7.5,0-14.4-5.7-14.4-16.8
			c0-3.4,0.7-7.1,1.9-11.4L869.2,129.1z"/>
	</g>
	<g>
		<path class="st12" d="M892.8,54.2h24.6l33.4,100.7c1.3,3.8,3.9,5.2,7.5,5.2h5.2v1.6h-61.7v-1.6h7.9c3.5,0,5.5-2.2,5.5-5.7
			c0-1.1-0.1-2.3-0.5-3.6l-10-32l0,0l-1.1-3.7l-0.2-0.5l-1-3l-14.1-43.7L892.8,54.2z"/>
	</g>
</g>
<g>
	<g>
		<path class="st0" d="M453.7,129.1c-4.3,13.9-12.2,31.1-23.4,31.1h-2.6v1.6h44.7v-1.6h-4.7c-7.5,0-14.4-5.7-14.4-16.8
			c0-3.4,0.7-7.1,1.9-11.4L453.7,129.1z"/>
	</g>
	<g>
		<path class="st0" d="M477.3,54.2h24.6l33.4,100.7c1.3,3.8,3.9,5.2,7.5,5.2h5.2v1.6h-61.7v-1.6h7.9c3.5,0,5.5-2.2,5.5-5.7
			c0-1.1-0.1-2.3-0.5-3.6l-10-32l0,0l-1.1-3.7l-0.2-0.5l-1-3l-14.1-43.7L477.3,54.2z"/>
	</g>
</g>
<rect x="519.4" y="-124.4" class="st14" width="44.2" height="44.2"/>
<rect x="568.6" y="-124.4" class="st9" width="44.2" height="44.2"/>
<rect x="617.6" y="-124.4" class="st7" width="44.2" height="44.2"/>
<rect x="666.8" y="-124.4" class="st4" width="44.2" height="44.2"/>
</svg>
