<?xml version="1.0" encoding="utf-8"?>
<!-- Generator: Adobe Illustrator 21.1.0, SVG Export Plug-In . SVG Version: 6.00 Build 0)  -->
<svg version="1.1" id="Layer_1" xmlns="http://www.w3.org/2000/svg" xmlns:xlink="http://www.w3.org/1999/xlink" x="0px" y="0px"
	 viewBox="0 0 992.5 207.3" style="enable-background:new 0 0 992.5 207.3;" xml:space="preserve">
<style type="text/css">
	.st0{fill-rule:evenodd;clip-rule:evenodd;fill:#588E95;stroke:#FFFFFF;stroke-width:2.8346;stroke-miterlimit:22.9256;}
	.st1{fill-rule:evenodd;clip-rule:evenodd;fill:#FFFFFF;stroke:#FFFFFF;stroke-width:0.216;stroke-miterlimit:22.9256;}
	.st2{fill-rule:evenodd;clip-rule:evenodd;fill:#588E95;stroke:#FFFFFF;stroke-width:0.216;stroke-miterlimit:22.9256;}
	.st3{fill-rule:evenodd;clip-rule:evenodd;fill:#588E95;}
	.st4{fill:#353740;}
	.st5{fill:#FFFFFF;}
	.st6{fill:#C52F27;}
	.st7{fill:#5ABA47;}
</style>
<path class="st0" d="M497.2,179.2c49.4,0,89.8-19.9,89.8-44.3c0-24.4-40.3-44.3-89.8-44.3s-89.8,19.9-89.8,44.3
	C407.5,159.3,447.8,179.2,497.2,179.2z"/>
<path class="st1" d="M497.2,168.9c38,0,69-15.3,69-34.1c0-18.8-31-34.1-69-34.1s-69,15.3-69,34.1
	C428.2,153.6,459.2,168.9,497.2,168.9z"/>
<path class="st2" d="M497.2,160.3c28.4,0,51.6-11.4,51.6-25.5c0-14-23.2-25.5-51.6-25.5c-28.4,0-51.6,11.4-51.6,25.5
	C445.6,148.9,468.8,160.3,497.2,160.3z"/>
<path class="st2" d="M522,165l-5.6-4.8c2.9-0.5,5.7-1.1,8.4-1.8c2.7-0.8,5.2-1.7,7.4-2.7l5.6,4.8c-2.3,0.9-4.8,1.8-7.5,2.6
	C527.6,163.9,524.8,164.5,522,165L522,165z M488.1,167.1v-5.5c2.9,0.3,6,0.5,9.1,0.5s6.2-0.2,9.1-0.5v5.5c-3,0.2-6,0.4-9.1,0.4
	C494.1,167.5,491.1,167.4,488.1,167.1L488.1,167.1z M456.7,160.6l5.6-4.8c2.2,1,4.7,1.9,7.4,2.7c2.7,0.8,5.5,1.4,8.4,1.8l-5.6,4.8
	c-2.8-0.5-5.6-1.2-8.3-1.9C461.5,162.4,459,161.5,456.7,160.6L456.7,160.6z M436.1,147.1l9.7-2.8c0.9,1.4,2.2,2.8,3.7,4.1
	c1.6,1.3,3.4,2.6,5.4,3.7l-9.7,2.8c-1.9-1.1-3.7-2.4-5.2-3.7C438.4,149.8,437.1,148.5,436.1,147.1L436.1,147.1z M431.9,130.4H443
	c-0.6,1.4-1,2.9-1,4.5c0,1.5,0.3,3,1,4.5h-11.2c-0.5-1.5-0.8-3-0.8-4.5C431.1,133.3,431.4,131.8,431.9,130.4L431.9,130.4z
	 M445.2,114.8l9.7,2.8c-2,1.1-3.8,2.3-5.4,3.7c-1.6,1.3-2.8,2.7-3.7,4.1l-9.7-2.8c1-1.4,2.3-2.8,3.9-4.1
	C441.5,117.2,443.3,116,445.2,114.8L445.2,114.8z M472.4,104.7l5.6,4.8c-2.9,0.5-5.7,1.1-8.4,1.8c-2.7,0.8-5.2,1.7-7.4,2.7l-5.6-4.8
	c2.3-0.9,4.8-1.8,7.5-2.6C466.9,105.8,469.6,105.2,472.4,104.7L472.4,104.7z M506.3,102.6v5.5c-2.9-0.3-6-0.5-9.1-0.5
	s-6.2,0.2-9.1,0.5v-5.5c3-0.2,6-0.4,9.1-0.4C500.3,102.2,503.4,102.4,506.3,102.6L506.3,102.6z M537.8,109.2l-5.6,4.8
	c-2.2-1-4.7-1.9-7.4-2.7c-2.7-0.8-5.5-1.4-8.4-1.8l5.6-4.8c2.8,0.5,5.6,1.2,8.3,1.9C533,107.4,535.5,108.2,537.8,109.2L537.8,109.2z
	 M558.4,122.6l-9.7,2.8c-0.9-1.4-2.2-2.8-3.7-4.1c-1.6-1.3-3.4-2.6-5.4-3.7l9.7-2.8c1.9,1.1,3.7,2.4,5.2,3.7
	C556,119.9,557.3,121.2,558.4,122.6L558.4,122.6z M562.6,139.3h-11.2c0.6-1.4,1-2.9,1-4.5c0-1.5-0.3-3-1-4.5h11.2
	c0.5,1.5,0.8,3,0.8,4.5S563.1,137.9,562.6,139.3L562.6,139.3z M549.3,154.9l-9.7-2.8c2-1.1,3.8-2.3,5.4-3.7c1.6-1.3,2.8-2.7,3.7-4.1
	l9.7,2.8c-1,1.4-2.3,2.7-3.9,4.1C552.9,152.5,551.2,153.7,549.3,154.9z"/>
<path class="st1" d="M497.2,156.4c24,0,43.6-9.7,43.6-21.5c0-11.8-19.6-21.5-43.6-21.5s-43.6,9.7-43.6,21.5
	C453.7,146.7,473.2,156.4,497.2,156.4z"/>
<path class="st1" d="M497.2,178.5c-5.8,0-11.6-0.3-17.1-0.8V174c0-1.3,2.2-2.4,4.9-2.4h24.4c2.7,0,4.9,1.1,4.9,2.4v3.7
	C508.8,178.3,503.1,178.5,497.2,178.5L497.2,178.5z M573.8,156.7c-2.9,2.5-6.3,4.8-10,6.9l-6.5-1.9c-2.3-0.7-3.1-2.1-1.8-3.3
	l12.2-10.4c1.3-1.1,4.3-1.5,6.7-0.9l6.5,1.9C579.1,151.6,576.7,154.2,573.8,156.7L573.8,156.7z M573.8,113c2.9,2.5,5.3,5.1,7.1,7.7
	l-6.5,1.9c-2.3,0.7-5.3,0.3-6.7-0.9l-12.2-10.4c-1.3-1.1-0.5-2.6,1.8-3.3l6.5-1.9C567.6,108.2,570.9,110.5,573.8,113L573.8,113z
	 M497.2,91.2c5.8,0,11.6,0.3,17.1,0.8v3.7c0,1.3-2.2,2.4-4.9,2.4H485c-2.7,0-4.9-1.1-4.9-2.4V92C485.7,91.5,491.4,91.2,497.2,91.2
	L497.2,91.2z M420.6,113c2.9-2.5,6.3-4.8,10-6.9l6.5,1.9c2.3,0.7,3.1,2.1,1.8,3.3l-12.2,10.4c-1.3,1.1-4.3,1.5-6.7,0.9l-6.5-1.9
	C415.3,118.1,417.7,115.5,420.6,113L420.6,113z M420.6,156.7c-2.9-2.5-5.3-5.1-7.1-7.7l6.5-1.9c2.3-0.7,5.3-0.3,6.7,0.9l12.2,10.4
	c1.3,1.1,0.5,2.6-1.8,3.3l-6.5,1.9C426.9,161.5,423.5,159.2,420.6,156.7z"/>
<path class="st3" d="M587.2,137.4c1.7,3.4,0,17.8,0,21.5c0,24.5-40.2,44.3-89.8,44.3c-49.6,0-89.8-19.8-89.8-44.3
	c0-3.7-1.7-18.1,0-21.5c0,24.5,40.2,44.3,89.8,44.3C547,181.7,587.2,161.9,587.2,137.4z"/>
<path class="st1" d="M514.3,199.9v-21.5c-5.5,0.5-11.2,0.8-17.1,0.8c-5.8,0-11.6-0.3-17.1-0.8v21.5c5.5,0.5,11.2,0.8,17.1,0.8
	C503.1,200.7,508.8,200.4,514.3,199.9z"/>
<path class="st1" d="M430.6,164.5V186c-7.3-4-13.1-8.6-17.1-13.7v-21.5C417.5,155.9,423.3,160.6,430.6,164.5z"/>
<path class="st0" d="M487.4,137.6c49.4,0,89.8-19.9,89.8-44.3S536.8,49,487.4,49c-49.4,0-89.8,19.9-89.8,44.3
	S437.9,137.6,487.4,137.6z"/>
<path class="st1" d="M487.4,127.4c38,0,69-15.3,69-34.1c0-18.8-31-34.1-69-34.1s-69,15.3-69,34.1
	C418.4,112.1,449.4,127.4,487.4,127.4z"/>
<path class="st2" d="M487.4,118.8c28.4,0,51.6-11.4,51.6-25.5s-23.2-25.5-51.6-25.5s-51.6,11.4-51.6,25.5S458.9,118.8,487.4,118.8z"
	/>
<path class="st2" d="M512.2,123.5l-5.6-4.8c2.9-0.5,5.7-1.1,8.4-1.8c2.7-0.8,5.2-1.7,7.4-2.7l5.6,4.8c-2.3,0.9-4.8,1.8-7.5,2.6
	C517.7,122.3,515,123,512.2,123.5L512.2,123.5z M478.3,125.6V120c2.9,0.3,6,0.5,9.1,0.5s6.2-0.2,9.1-0.5v5.5c-3,0.2-6,0.4-9.1,0.4
	C484.3,125.9,481.2,125.8,478.3,125.6L478.3,125.6z M446.8,119l5.6-4.8c2.2,1,4.7,1.9,7.4,2.7c2.7,0.8,5.5,1.4,8.4,1.8l-5.6,4.8
	c-2.8-0.5-5.6-1.2-8.3-1.9C451.6,120.8,449.1,119.9,446.8,119L446.8,119z M426.2,105.5l9.7-2.8c0.9,1.4,2.2,2.8,3.7,4.1
	c1.6,1.3,3.4,2.6,5.4,3.7l-9.7,2.8c-1.9-1.1-3.7-2.4-5.2-3.7C428.6,108.3,427.3,106.9,426.2,105.5L426.2,105.5z M422,88.8h11.2
	c-0.6,1.4-1,2.9-1,4.5c0,1.5,0.3,3,1,4.5H422c-0.5-1.5-0.8-3-0.8-4.5C421.3,91.8,421.5,90.3,422,88.8L422,88.8z M435.3,73.3L445,76
	c-2,1.1-3.8,2.3-5.4,3.7c-1.6,1.3-2.8,2.7-3.7,4.1l-9.7-2.8c1-1.4,2.3-2.8,3.9-4.1C431.7,75.7,433.4,74.4,435.3,73.3L435.3,73.3z
	 M462.6,63.1l5.6,4.8c-2.9,0.5-5.7,1.1-8.4,1.8c-2.7,0.8-5.2,1.7-7.4,2.7l-5.6-4.8c2.3-0.9,4.8-1.8,7.5-2.6
	C457,64.3,459.8,63.6,462.6,63.1L462.6,63.1z M496.5,61v5.5c-2.9-0.3-6-0.5-9.1-0.5s-6.2,0.2-9.1,0.5V61c3-0.2,6-0.4,9.1-0.4
	C490.5,60.7,493.5,60.8,496.5,61L496.5,61z M527.9,67.6l-5.6,4.8c-2.2-1-4.7-1.9-7.4-2.7c-2.7-0.8-5.5-1.4-8.4-1.8l5.6-4.8
	c2.8,0.5,5.6,1.2,8.3,1.9C523.1,65.8,525.6,66.7,527.9,67.6L527.9,67.6z M548.5,81.1l-9.7,2.8c-0.9-1.4-2.2-2.8-3.7-4.1
	c-1.6-1.3-3.4-2.6-5.4-3.7l9.7-2.8c1.9,1.1,3.7,2.4,5.2,3.7C546.2,78.3,547.4,79.7,548.5,81.1L548.5,81.1z M552.7,97.8h-11.2
	c0.6-1.4,1-2.9,1-4.5c0-1.5-0.3-3-1-4.5h11.2c0.5,1.5,0.8,3,0.8,4.5S553.2,96.3,552.7,97.8L552.7,97.8z M539.4,113.3l-9.7-2.8
	c2-1.1,3.8-2.3,5.4-3.7c1.6-1.3,2.8-2.7,3.7-4.1l9.7,2.8c-1,1.4-2.3,2.7-3.9,4.1C543.1,110.9,541.3,112.2,539.4,113.3z"/>
<path class="st1" d="M487.4,114.8c24,0,43.6-9.7,43.6-21.5s-19.6-21.5-43.6-21.5c-24,0-43.6,9.7-43.6,21.5S463.4,114.8,487.4,114.8z
	"/>
<path class="st1" d="M487.4,137c-5.8,0-11.6-0.3-17.1-0.8v-3.7c0-1.3,2.2-2.4,4.9-2.4h24.4c2.7,0,4.9,1.1,4.9,2.4v3.7
	C498.9,136.7,493.2,137,487.4,137L487.4,137z M564,115.1c-2.9,2.5-6.3,4.8-10,6.9l-6.5-1.9c-2.3-0.7-3.1-2.1-1.8-3.3l12.2-10.4
	c1.3-1.1,4.3-1.5,6.7-0.9l6.5,1.9C569.3,110.1,566.9,112.6,564,115.1L564,115.1z M564,71.5c2.9,2.5,5.3,5.1,7.1,7.7l-6.5,1.9
	c-2.3,0.7-5.3,0.3-6.7-0.9l-12.2-10.4c-1.3-1.1-0.5-2.6,1.8-3.3l6.5-1.9C557.7,66.7,561,69,564,71.5L564,71.5z M487.4,49.6
	c5.8,0,11.6,0.3,17.1,0.8v3.7c0,1.3-2.2,2.4-4.9,2.4h-24.4c-2.7,0-4.9-1.1-4.9-2.4v-3.7C475.8,49.9,481.5,49.6,487.4,49.6
	L487.4,49.6z M410.8,71.5c2.9-2.5,6.3-4.8,10-6.9l6.5,1.9c2.3,0.7,3.1,2.1,1.8,3.3l-12.2,10.4c-1.3,1.1-4.3,1.5-6.7,0.9l-6.5-1.9
	C405.5,76.5,407.8,74,410.8,71.5L410.8,71.5z M410.8,115.1c-2.9-2.5-5.3-5.1-7.1-7.7l6.5-1.9c2.3-0.7,5.3-0.3,6.7,0.9l12.2,10.4
	c1.3,1.1,0.5,2.6-1.8,3.3l-6.5,1.9C417,119.9,413.7,117.6,410.8,115.1z"/>
<path class="st3" d="M577.4,95.8c1.7,3.4,0,17.8,0,21.5c0,24.5-40.2,44.3-89.8,44.3c-49.6,0-89.8-19.8-89.8-44.3
	c0-3.7-1.7-18.1,0-21.5c0,24.5,40.2,44.3,89.8,44.3C537.2,140.2,577.4,120.3,577.4,95.8z"/>
<path class="st1" d="M571.1,130.8c-4,5.1-9.8,9.7-17.1,13.7V123c7.3-4,13.1-8.6,17.1-13.7V130.8z"/>
<path class="st1" d="M504.5,158.3v-21.5c-5.5,0.5-11.2,0.8-17.1,0.8c-5.8,0-11.6-0.3-17.1-0.8v21.5c5.5,0.5,11.2,0.8,17.1,0.8
	C493.2,159.1,498.9,158.8,504.5,158.3z"/>
<path class="st0" d="M509.6,114.6c49.4,0,89.8-19.9,89.8-44.3c0-24.4-40.3-44.3-89.8-44.3s-89.8,19.9-89.8,44.3
	C419.8,94.7,460.1,114.6,509.6,114.6z"/>
<path class="st1" d="M509.6,104.4c38,0,69-15.3,69-34.1c0-18.8-31-34.1-69-34.1s-69,15.3-69,34.1
	C440.6,89.1,471.6,104.4,509.6,104.4z"/>
<path class="st2" d="M509.6,95.8c28.4,0,51.6-11.4,51.6-25.5c0-14-23.2-25.5-51.6-25.5c-28.4,0-51.6,11.4-51.6,25.5
	C458,84.3,481.2,95.8,509.6,95.8z"/>
<path class="st2" d="M534.4,100.5l-5.6-4.8c2.9-0.5,5.7-1.1,8.4-1.8c2.7-0.8,5.2-1.7,7.4-2.7l5.6,4.8c-2.3,0.9-4.8,1.8-7.5,2.6
	C539.9,99.3,537.2,100,534.4,100.5L534.4,100.5z M500.5,102.6V97c2.9,0.3,6,0.5,9.1,0.5c3.1,0,6.2-0.2,9.1-0.5v5.5
	c-3,0.2-6,0.4-9.1,0.4C506.5,102.9,503.4,102.8,500.5,102.6L500.5,102.6z M469,96l5.6-4.8c2.2,1,4.7,1.9,7.4,2.7
	c2.7,0.8,5.5,1.4,8.4,1.8l-5.6,4.8c-2.8-0.5-5.6-1.2-8.3-1.9C473.9,97.8,471.4,96.9,469,96L469,96z M448.5,82.5l9.7-2.8
	c0.9,1.4,2.2,2.8,3.7,4.1c1.6,1.3,3.4,2.6,5.4,3.7l-9.7,2.8c-1.9-1.1-3.7-2.4-5.2-3.7C450.8,85.3,449.5,83.9,448.5,82.5L448.5,82.5z
	 M444.2,65.8h11.2c-0.6,1.4-1,2.9-1,4.5c0,1.5,0.3,3,1,4.5h-11.2c-0.5-1.5-0.8-3-0.8-4.5C443.5,68.8,443.7,67.3,444.2,65.8
	L444.2,65.8z M457.5,50.3l9.7,2.8c-2,1.1-3.8,2.3-5.4,3.7c-1.6,1.3-2.8,2.7-3.7,4.1l-9.7-2.8c1-1.4,2.3-2.8,3.9-4.1
	C453.9,52.7,455.6,51.4,457.5,50.3L457.5,50.3z M484.8,40.1l5.6,4.8c-2.9,0.5-5.7,1.1-8.4,1.8c-2.7,0.8-5.2,1.7-7.4,2.7l-5.6-4.8
	c2.3-0.9,4.8-1.8,7.5-2.6C479.2,41.3,482,40.6,484.8,40.1L484.8,40.1z M518.7,38v5.5c-2.9-0.3-6-0.5-9.1-0.5c-3.1,0-6.2,0.2-9.1,0.5
	V38c3-0.2,6-0.4,9.1-0.4C512.7,37.7,515.7,37.8,518.7,38L518.7,38z M550.1,44.6l-5.6,4.8c-2.2-1-4.7-1.9-7.4-2.7
	c-2.7-0.8-5.5-1.4-8.4-1.8l5.6-4.8c2.8,0.5,5.6,1.2,8.3,1.9C545.3,42.8,547.8,43.7,550.1,44.6L550.1,44.6z M570.7,58.1l-9.7,2.8
	c-0.9-1.4-2.2-2.8-3.7-4.1c-1.6-1.3-3.4-2.6-5.4-3.7l9.7-2.8c1.9,1.1,3.7,2.4,5.2,3.7C568.4,55.3,569.7,56.7,570.7,58.1L570.7,58.1z
	 M574.9,74.8h-11.2c0.6-1.4,1-2.9,1-4.5c0-1.5-0.3-3-1-4.5h11.2c0.5,1.5,0.8,3,0.8,4.5C575.7,71.8,575.4,73.3,574.9,74.8L574.9,74.8
	z M561.6,90.3l-9.7-2.8c2-1.1,3.8-2.3,5.4-3.7c1.6-1.3,2.8-2.7,3.7-4.1l9.7,2.8c-1,1.4-2.3,2.7-3.9,4.1
	C565.3,87.9,563.5,89.2,561.6,90.3z"/>
<path class="st1" d="M509.6,91.8c24,0,43.6-9.7,43.6-21.5s-19.6-21.5-43.6-21.5c-24,0-43.6,9.7-43.6,21.5S485.6,91.8,509.6,91.8z"/>
<path class="st1" d="M509.6,114c-5.8,0-11.6-0.3-17.1-0.8v-3.7c0-1.3,2.2-2.4,4.9-2.4h24.4c2.7,0,4.9,1.1,4.9,2.4v3.7
	C521.1,113.7,515.4,114,509.6,114L509.6,114z M586.2,92.1c-2.9,2.5-6.3,4.8-10,6.9l-6.5-1.9c-2.3-0.7-3.1-2.1-1.8-3.3l12.2-10.4
	c1.3-1.1,4.3-1.5,6.7-0.9l6.5,1.9C591.5,87,589.1,89.6,586.2,92.1L586.2,92.1z M586.2,48.5c2.9,2.5,5.3,5.1,7.1,7.7l-6.5,1.9
	c-2.3,0.7-5.3,0.3-6.7-0.9l-12.2-10.4c-1.3-1.1-0.5-2.6,1.8-3.3l6.5-1.9C579.9,43.7,583.3,46,586.2,48.5L586.2,48.5z M509.6,26.6
	c5.8,0,11.6,0.3,17.1,0.8v3.7c0,1.3-2.2,2.4-4.9,2.4h-24.4c-2.7,0-4.9-1.1-4.9-2.4v-3.7C498,26.9,503.7,26.6,509.6,26.6L509.6,26.6z
	 M433,48.5c2.9-2.5,6.3-4.8,10-6.9l6.5,1.9c2.3,0.7,3.1,2.1,1.8,3.3L439,57.2c-1.3,1.1-4.3,1.5-6.7,0.9l-6.5-1.9
	C427.7,53.5,430.1,51,433,48.5L433,48.5z M433,92.1c-2.9-2.5-5.3-5.1-7.1-7.7l6.5-1.9c2.3-0.7,5.3-0.3,6.7,0.9l12.2,10.4
	c1.3,1.1,0.5,2.6-1.8,3.3L443,99C439.3,96.9,435.9,94.6,433,92.1z"/>
<path class="st3" d="M598.6,72.8c1.7,3.4,0,17.8,0,21.5c0,24.5-40.2,44.3-89.8,44.3c-49.6,0-89.8-19.8-89.8-44.3
	c0-3.7-1.7-18.1,0-21.5c0,24.5,40.2,44.3,89.8,44.3C558.4,117.1,598.6,97.3,598.6,72.8z"/>
<path class="st1" d="M526.7,135.3v-21.5c-5.5,0.5-11.2,0.8-17.1,0.8c-5.8,0-11.6-0.3-17.1-0.8v21.5c5.5,0.5,11.2,0.8,17.1,0.8
	C515.4,136.1,521.1,135.8,526.7,135.3z"/>
<path class="st1" d="M443,100v21.5c-7.3-4-13.1-8.6-17.1-13.7V86.3C429.9,91.4,435.7,96,443,100z"/>
<path class="st0" d="M494.8,93.4c49.4,0,89.8-19.9,89.8-44.3c0-24.4-40.3-44.3-89.8-44.3c-49.4,0-89.8,19.9-89.8,44.3
	C405.1,73.5,445.4,93.4,494.8,93.4z"/>
<path class="st1" d="M494.8,83.2c38,0,69-15.3,69-34.1c0-18.8-31-34.1-69-34.1c-38,0-69,15.3-69,34.1
	C425.8,67.9,456.8,83.2,494.8,83.2z"/>
<path class="st2" d="M494.8,74.6c28.4,0,51.6-11.4,51.6-25.5c0-14-23.2-25.5-51.6-25.5c-28.4,0-51.6,11.4-51.6,25.5
	C443.2,63.2,466.4,74.6,494.8,74.6z"/>
<path class="st2" d="M519.6,79.3l-5.6-4.8c2.9-0.5,5.7-1.1,8.4-1.8c2.7-0.8,5.2-1.7,7.4-2.7l5.6,4.8c-2.3,0.9-4.8,1.8-7.5,2.6
	C525.2,78.2,522.4,78.8,519.6,79.3L519.6,79.3z M485.7,81.4v-5.5c2.9,0.3,6,0.5,9.1,0.5s6.2-0.2,9.1-0.5v5.5c-3,0.2-6,0.4-9.1,0.4
	C491.7,81.8,488.7,81.6,485.7,81.4L485.7,81.4z M454.3,74.8l5.6-4.8c2.2,1,4.7,1.9,7.4,2.7c2.7,0.8,5.5,1.4,8.4,1.8l-5.6,4.8
	c-2.8-0.5-5.6-1.2-8.3-1.9C459.1,76.6,456.6,75.8,454.3,74.8L454.3,74.8z M433.7,61.4l9.7-2.8c0.9,1.4,2.2,2.8,3.7,4.1
	c1.6,1.3,3.4,2.6,5.4,3.7l-9.7,2.8c-1.9-1.1-3.7-2.4-5.2-3.7C436,64.1,434.8,62.8,433.7,61.4L433.7,61.4z M429.5,44.6h11.2
	c-0.6,1.4-1,2.9-1,4.5c0,1.5,0.3,3,1,4.5h-11.2c-0.5-1.5-0.8-3-0.8-4.5C428.7,47.6,429,46.1,429.5,44.6L429.5,44.6z M442.8,29.1
	l9.7,2.8c-2,1.1-3.8,2.3-5.4,3.7c-1.6,1.3-2.8,2.7-3.7,4.1l-9.7-2.8c1-1.4,2.3-2.8,3.9-4.1C439.1,31.5,440.9,30.2,442.8,29.1
	L442.8,29.1z M470,18.9l5.6,4.8c-2.9,0.5-5.7,1.1-8.4,1.8c-2.7,0.8-5.2,1.7-7.4,2.7l-5.6-4.8c2.3-0.9,4.8-1.8,7.5-2.6
	C464.5,20.1,467.2,19.5,470,18.9L470,18.9z M503.9,16.9v5.5c-2.9-0.3-6-0.5-9.1-0.5s-6.2,0.2-9.1,0.5v-5.5c3-0.2,6-0.4,9.1-0.4
	C497.9,16.5,501,16.6,503.9,16.9L503.9,16.9z M535.4,23.4l-5.6,4.8c-2.2-1-4.7-1.9-7.4-2.7c-2.7-0.8-5.5-1.4-8.4-1.8l5.6-4.8
	c2.8,0.5,5.6,1.2,8.3,1.9C530.6,21.6,533.1,22.5,535.4,23.4L535.4,23.4z M556,36.9l-9.7,2.8c-0.9-1.4-2.2-2.8-3.7-4.1
	c-1.6-1.3-3.4-2.6-5.4-3.7l9.7-2.8c1.9,1.1,3.7,2.4,5.2,3.7C553.6,34.1,554.9,35.5,556,36.9L556,36.9z M560.2,53.6H549
	c0.6-1.4,1-2.9,1-4.5c0-1.5-0.3-3-1-4.5h11.2c0.5,1.5,0.8,3,0.8,4.5C560.9,50.7,560.7,52.2,560.2,53.6L560.2,53.6z M546.9,69.1
	l-9.7-2.8c2-1.1,3.8-2.3,5.4-3.7c1.6-1.3,2.8-2.7,3.7-4.1l9.7,2.8c-1,1.4-2.3,2.7-3.9,4.1C550.5,66.8,548.8,68,546.9,69.1z"/>
<path class="st1" d="M494.8,70.6c24,0,43.6-9.7,43.6-21.5s-19.6-21.5-43.6-21.5c-24,0-43.6,9.7-43.6,21.5S470.8,70.6,494.8,70.6z"/>
<path class="st1" d="M494.8,92.8c-5.8,0-11.6-0.3-17.1-0.8v-3.7c0-1.3,2.2-2.4,4.9-2.4h24.4c2.7,0,4.9,1.1,4.9,2.4V92
	C506.4,92.5,500.7,92.8,494.8,92.8L494.8,92.8z M571.4,71c-2.9,2.5-6.3,4.8-10,6.9l-6.5-1.9c-2.3-0.7-3.1-2.1-1.8-3.3l12.2-10.4
	c1.3-1.1,4.3-1.5,6.7-0.9l6.5,1.9C576.7,65.9,574.4,68.5,571.4,71L571.4,71z M571.4,27.3c2.9,2.5,5.3,5.1,7.1,7.7l-6.5,1.9
	c-2.3,0.7-5.3,0.3-6.7-0.9l-12.2-10.4c-1.3-1.1-0.5-2.6,1.8-3.3l6.5-1.9C565.2,22.5,568.5,24.8,571.4,27.3L571.4,27.3z M494.8,5.4
	c5.8,0,11.6,0.3,17.1,0.8V10c0,1.3-2.2,2.4-4.9,2.4h-24.4c-2.7,0-4.9-1.1-4.9-2.4V6.3C483.3,5.7,489,5.4,494.8,5.4L494.8,5.4z
	 M418.2,27.3c2.9-2.5,6.3-4.8,10-6.9l6.5,1.9c2.3,0.7,3.1,2.1,1.8,3.3L424.3,36c-1.3,1.1-4.3,1.5-6.7,0.9l-6.5-1.9
	C412.9,32.4,415.3,29.8,418.2,27.3L418.2,27.3z M418.2,71c-2.9-2.5-5.3-5.1-7.1-7.7l6.5-1.9c2.3-0.7,5.3-0.3,6.7,0.9l12.2,10.4
	c1.3,1.1,0.5,2.6-1.8,3.3l-6.5,1.9C424.5,75.8,421.1,73.5,418.2,71z"/>
<path class="st3" d="M584.8,51.7c1.7,3.4,0,17.8,0,21.5c0,24.5-40.2,44.3-89.8,44.3c-49.6,0-89.8-19.8-89.8-44.3
	c0-3.7-1.7-18.1,0-21.5c0,24.5,40.2,44.3,89.8,44.3C544.7,96,584.8,76.1,584.8,51.7z"/>
<path class="st1" d="M511.9,114.1V92.6c-5.5,0.5-11.2,0.8-17.1,0.8c-5.8,0-11.6-0.3-17.1-0.8v21.5c5.5,0.5,11.2,0.8,17.1,0.8
	C500.7,114.9,506.4,114.7,511.9,114.1z"/>
<path class="st1" d="M428.2,78.8v21.5c-7.3-4-13.1-8.6-17.1-13.7V65.1C415.1,70.2,420.9,74.8,428.2,78.8z"/>
<g>
	<path class="st4" d="M71.1,161.4H0v-1.8h8.3c4.8,0,8.6-4,8.6-9V60.7c0-3.9-2.2-5.5-6.3-5.5H3.4v-1.6h59.8
		c20.7,0,38.5,8.6,38.5,24.8c0,12.8-12.1,21.7-26.9,24.5l0.1,0.9c17.8,2.4,34.9,12.8,34.9,29.2C109.7,149.3,95.6,161.4,71.1,161.4z
		 M59.4,55.2H47.9v47.1h11.6c9,0,10.2-7.3,10.2-24.5C69.7,60.7,65.6,55.2,59.4,55.2z M59,104.5h-11v46.3c0,6.3,0.3,8.9,9.8,8.9
		c13.5,0,15.6-4.7,15.6-27.5C73.4,114,68.8,104.5,59,104.5z"/>
</g>
<g>
	<path class="st4" d="M206,161.3h-93.6v-1.6h5.4c6.9,0,9.8-4.6,9.8-10.2V66c0-6.3-3-10.6-10.1-10.6h-5.4v-1.6h63v1.6h-7.8
		c-4.8,0-7.9,3.4-7.9,7.8v88c0,7,2.8,8.5,10.2,8.5c20.7,0,35-31.6,35-44.3h1.3V161.3z"/>
</g>
<g>
	<path class="st4" d="M433.3,120c0,19.7-13.5,44.3-42.5,44.3c-35.4,0-60.4-23.7-60.4-55.1c0-31.5,29.9-57.9,56.9-57.9
		c15.1,0,20.2,8.6,31.1,8.6c8.3,0,10.4-7.4,10.4-7.4h0.5v51.6h-1.6v-3c0-7.1-12.9-48.1-38.6-48.1c-15.5,0-22.6,23.3-22.6,57.9
		s10.1,51.3,27.1,51.3c21,0,37.7-19.8,37.7-42.3H433.3z"/>
</g>
<g>
	<path class="st4" d="M504.5,162.9c-0.8,0-1.5-0.7-1.5-1.5v-1.9c0-0.8,0.7-1.5,1.5-1.5h2.3c1.7,0,4.8-0.7,4.8-3.5
		c0-0.6-0.2-1.7-1.3-3.6l-20.2-34.1v32.9c0,6,3.9,8.2,7.2,8.2h3.2c0.8,0,1.5,0.7,1.5,1.5v1.8c0,0.8-0.7,1.5-1.5,1.5h-57.1
		c-0.8,0-1.5-0.7-1.5-1.5v-1.8c0-0.8,0.7-1.5,1.5-1.5h3.2c1.8,0,8.7-1.4,8.7-8.3V66.1c0-5.7-3.2-9.3-8.5-9.3h-3.5
		c-0.8,0-1.5-0.7-1.5-1.5v-1.8c0-0.8,0.7-1.5,1.5-1.5h57.1c0.8,0,1.5,0.7,1.5,1.5v1.8c0,0.8-0.7,1.5-1.5,1.5h-2.3
		c-4.6,0-8.2,4.1-8.2,9.3v30.9l23.6-21.4c3.3-3,5.2-6.8,5.2-10.6c0-4.7-2.9-8.2-6.8-8.2h-4.4c-0.8,0-1.5-0.7-1.5-1.5v-1.8
		c0-0.8,0.7-1.5,1.5-1.5h47.2c0.8,0,1.5,0.7,1.5,1.5v1.8c0,0.8-0.7,1.5-1.5,1.5h-3.5c-4.2,0-8.1,0-18.7,9.2l-22.4,19.5l42.9,65.9
		c3.7,5.8,5.2,6.7,10.9,6.7h3.4c0.8,0,1.5,0.7,1.5,1.5v1.8c0,0.8-0.7,1.5-1.5,1.5H504.5z"/>
	<path class="st5" d="M554.9,53.6v1.8h-3.5c-4.8,0-9.2,0.4-19.7,9.6l-23.4,20.3l43.6,67c3.9,6.1,5.8,7.4,12.1,7.4h3.4v1.8h-62.9
		v-1.9h2.3c3.1,0,6.3-1.6,6.3-5c0-1.2-0.5-2.7-1.5-4.3l-23-38.8v38.4c0,7.3,5,9.7,8.8,9.7h3.2v1.8h-57.1v-1.8h3.2
		c3.4,0,10.2-2.4,10.2-9.8V66.1c0-6.5-3.8-10.8-10-10.8h-3.5v-1.8h57.1v1.8h-2.3c-5.2,0-9.7,4.6-9.7,10.8v34.3l26.1-23.7
		c4-3.6,5.7-7.9,5.7-11.7c0-5.4-3.4-9.7-8.3-9.7h-4.4v-1.8H554.9 M554.9,50.6h-47.2c-1.7,0-3,1.3-3,3v1.8c0,1.7,1.3,3,3,3h4.4
		c2.6,0,5.3,2.1,5.3,6.7c0,2-0.6,5.8-4.7,9.5l-21.1,19.1V66.1c0-4.4,2.9-7.8,6.7-7.8h2.3c1.7,0,3-1.3,3-3v-1.8c0-1.7-1.3-3-3-3
		h-57.1c-1.7,0-3,1.3-3,3v1.8c0,1.7,1.3,3,3,3h3.5c4.4,0,7,2.8,7,7.8v83.6c0,5.7-5.7,6.8-7.2,6.8h-3.2c-1.7,0-3,1.3-3,3v1.8
		c0,1.7,1.3,3,3,3h57.1c0.7,0,1.4-0.2,1.9-0.7c0.5,0.5,1.2,0.8,2,0.8h62.9c1.7,0,3-1.3,3-3v-1.8c0-1.7-1.3-3-3-3H564
		c-5.1,0-6.1-0.7-9.6-6l-42.2-64.9l21.4-18.6c10.1-8.8,13.8-8.8,17.7-8.8h3.5c1.7,0,3-1.3,3-3v-1.8
		C557.9,51.9,556.5,50.6,554.9,50.6L554.9,50.6z M497.4,156.5c-1.3,0-5.8-0.5-5.8-6.7v-27.4l17.4,29.4c1,1.7,1.1,2.6,1.1,2.8
		c0,2-3.3,2-3.3,2h-2.3c-0.7,0-1.4,0.3-2,0.7c-0.5-0.4-1.2-0.7-2-0.7H497.4L497.4,156.5z"/>
</g>
<g>
	<path class="st6" d="M658.2,55.3h-5.9c-3.5,0-7.5,1.9-7.5,6.9v72.6c0,19.1-22.1,30-43.1,30c-18.7,0-36.6-8.8-36.6-27.7
		c0-11.3,9.6-19.9,19.2-19.9c10.5,0,18.6,8.6,18.6,17.9c0,9.4-7.5,17.1-17,17.1c-4.3,0-7.5-1.5-8.8-1.5c-0.3,0-0.5,0.1-0.5,0.4
		c0,4.2,7.3,11.2,18.2,11.2c10.6,0,18-7.3,18-20.2V64.2c0-6.9-3.2-8.9-8.9-8.9h-6.3v-1.8h60.6V55.3z"/>
</g>
<g>
	<path class="st6" d="M858.8,120c0,19.7-13.5,44.3-42.5,44.3c-35.4,0-60.4-23.7-60.4-55.1c0-31.5,29.9-57.9,56.9-57.9
		c15.1,0,20.2,8.6,31.1,8.6c8.3,0,10.4-7.4,10.4-7.4h0.5v51.6h-1.6v-3c0-7.1-12.9-48.1-38.6-48.1c-15.5,0-22.6,23.3-22.6,57.9
		s10.1,51.3,27.1,51.3c21,0,37.7-19.8,37.7-42.3H858.8z"/>
</g>
<g>
	<path class="st6" d="M990.9,161.4H928v-1.9h2.3c3.1,0,6.3-1.6,6.3-5c0-1.2-0.5-2.7-1.5-4.3l-23-38.8v38.4c0,7.3,5,9.7,8.7,9.7h3.2
		v1.8H867v-1.8h3.2c3.4,0,10.2-2.4,10.2-9.8V66.1c0-6.5-3.8-10.8-10-10.8H867v-1.8h57.1v1.8h-2.3c-5.2,0-9.7,4.6-9.7,10.8v34.3
		l26.1-23.7c4-3.6,5.7-7.9,5.7-11.7c0-5.4-3.4-9.7-8.3-9.7h-4.4v-1.8h47.2v1.8h-3.5c-4.8,0-9.2,0.4-19.7,9.6l-23.4,20.3l43.6,67
		c3.9,6.1,5.8,7.4,12.1,7.4h3.4V161.4z"/>
</g>
<path class="st7" d="M536.9,157.3h-4.7"/>
<path class="st7" d="M492.2,158.9"/>
<g>
	<g>
		<path class="st6" d="M665.9,128.9c-4.3,13.9-12.2,31.1-23.4,31.1h-2.6v1.6h44.7v-1.6h-4.7c-7.5,0-14.4-5.7-14.4-16.8
			c0-3.4,0.7-7.1,1.9-11.4L665.9,128.9z"/>
	</g>
	<g>
		<path class="st6" d="M689.5,54h24.6l33.4,100.7c1.3,3.8,3.9,5.2,7.5,5.2h5.2v1.6h-61.7v-1.6h7.9c3.5,0,5.5-2.2,5.5-5.7
			c0-1.1-0.1-2.3-0.5-3.6l-10-32l0,0l-1.1-3.7l-0.2-0.5l-1-3l-14.1-43.7L689.5,54z"/>
	</g>
</g>
<g>
	<g>
		<path class="st4" d="M242.4,128.9c-4.3,13.9-12.2,31.1-23.4,31.1h-2.6v1.6h44.7v-1.6h-4.7c-7.5,0-14.4-5.7-14.4-16.8
			c0-3.4,0.7-7.1,1.9-11.4L242.4,128.9z"/>
	</g>
	<g>
		<path class="st4" d="M266,54h24.6L324,154.7c1.3,3.8,3.9,5.2,7.5,5.2h5.2v1.6h-61.7v-1.6h7.9c3.5,0,5.5-2.2,5.5-5.7
			c0-1.1-0.1-2.3-0.5-3.6l-10-32l0,0l-1.1-3.7l-0.2-0.5l-1-3l-14.1-43.7L266,54z"/>
	</g>
</g>
</svg>
